<svg xmlns="http://www.w3.org/2000/svg" width="1040" height="260" viewBox="0 0 1040 260">
  <title>egernia — IVOA TAP 1.1 for the SKA</title>
  <g transform="translate(40 38)" shape-rendering="crispEdges">
    <rect x="392" y="28" width="14" height="14" fill="#8c3616"/>
    <rect x="420" y="28" width="14" height="14" fill="#8c3616"/>
    <rect x="434" y="28" width="14" height="14" fill="#8c3616"/>
    <rect x="350" y="42" width="14" height="14" fill="#8c3616"/>
    <rect x="378" y="42" width="14" height="14" fill="#8c3616"/>
    <rect x="392" y="42" width="14" height="14" fill="#e2793c"/>
    <rect x="406" y="42" width="14" height="14" fill="#201208"/>
    <rect x="420" y="42" width="14" height="14" fill="#e2793c"/>
    <rect x="434" y="42" width="14" height="14" fill="#e2793c"/>
    <rect x="98" y="56" width="14" height="14" fill="#8c3616"/>
    <rect x="126" y="56" width="14" height="14" fill="#8c3616"/>
    <rect x="154" y="56" width="14" height="14" fill="#8c3616"/>
    <rect x="182" y="56" width="14" height="14" fill="#8c3616"/>
    <rect x="210" y="56" width="14" height="14" fill="#8c3616"/>
    <rect x="238" y="56" width="14" height="14" fill="#8c3616"/>
    <rect x="266" y="56" width="14" height="14" fill="#8c3616"/>
    <rect x="294" y="56" width="14" height="14" fill="#8c3616"/>
    <rect x="308" y="56" width="14" height="14" fill="#8c3616"/>
    <rect x="336" y="56" width="14" height="14" fill="#8c3616"/>
    <rect x="350" y="56" width="14" height="14" fill="#e2793c"/>
    <rect x="364" y="56" width="14" height="14" fill="#201208"/>
    <rect x="378" y="56" width="14" height="14" fill="#e2793c"/>
    <rect x="392" y="56" width="14" height="14" fill="#e2793c"/>
    <rect x="406" y="56" width="14" height="14" fill="#201208"/>
    <rect x="420" y="56" width="14" height="14" fill="#e2793c"/>
    <rect x="434" y="56" width="14" height="14" fill="#e2793c"/>
    <rect x="84" y="70" width="14" height="14" fill="#e2793c"/>
    <rect x="98" y="70" width="14" height="14" fill="#e2793c"/>
    <rect x="112" y="70" width="14" height="14" fill="#e2793c"/>
    <rect x="126" y="70" width="14" height="14" fill="#201208"/>
    <rect x="140" y="70" width="14" height="14" fill="#201208"/>
    <rect x="154" y="70" width="14" height="14" fill="#e2793c"/>
    <rect x="168" y="70" width="14" height="14" fill="#e2793c"/>
    <rect x="182" y="70" width="14" height="14" fill="#201208"/>
    <rect x="196" y="70" width="14" height="14" fill="#201208"/>
    <rect x="210" y="70" width="14" height="14" fill="#e2793c"/>
    <rect x="224" y="70" width="14" height="14" fill="#e2793c"/>
    <rect x="238" y="70" width="14" height="14" fill="#201208"/>
    <rect x="252" y="70" width="14" height="14" fill="#201208"/>
    <rect x="266" y="70" width="14" height="14" fill="#e2793c"/>
    <rect x="280" y="70" width="14" height="14" fill="#e2793c"/>
    <rect x="294" y="70" width="14" height="14" fill="#e2793c"/>
    <rect x="308" y="70" width="14" height="14" fill="#201208"/>
    <rect x="322" y="70" width="14" height="14" fill="#e2793c"/>
    <rect x="336" y="70" width="14" height="14" fill="#e2793c"/>
    <rect x="350" y="70" width="14" height="14" fill="#201208"/>
    <rect x="364" y="70" width="14" height="14" fill="#e2793c"/>
    <rect x="378" y="70" width="14" height="14" fill="#e2793c"/>
    <rect x="392" y="70" width="14" height="14" fill="#e2793c"/>
    <rect x="406" y="70" width="14" height="14" fill="#e2793c"/>
    <rect x="14" y="84" width="14" height="14" fill="#e8c69c"/>
    <rect x="28" y="84" width="14" height="14" fill="#fdf1e0"/>
    <rect x="42" y="84" width="14" height="14" fill="#140c06"/>
    <rect x="56" y="84" width="14" height="14" fill="#e8c69c"/>
    <rect x="70" y="84" width="14" height="14" fill="#e8c69c"/>
    <rect x="84" y="84" width="14" height="14" fill="#c8562b"/>
    <rect x="98" y="84" width="14" height="14" fill="#c8562b"/>
    <rect x="112" y="84" width="14" height="14" fill="#c8562b"/>
    <rect x="126" y="84" width="14" height="14" fill="#201208"/>
    <rect x="140" y="84" width="14" height="14" fill="#201208"/>
    <rect x="154" y="84" width="14" height="14" fill="#c8562b"/>
    <rect x="168" y="84" width="14" height="14" fill="#c8562b"/>
    <rect x="182" y="84" width="14" height="14" fill="#201208"/>
    <rect x="196" y="84" width="14" height="14" fill="#201208"/>
    <rect x="210" y="84" width="14" height="14" fill="#c8562b"/>
    <rect x="224" y="84" width="14" height="14" fill="#c8562b"/>
    <rect x="238" y="84" width="14" height="14" fill="#201208"/>
    <rect x="252" y="84" width="14" height="14" fill="#201208"/>
    <rect x="266" y="84" width="14" height="14" fill="#c8562b"/>
    <rect x="280" y="84" width="14" height="14" fill="#c8562b"/>
    <rect x="294" y="84" width="14" height="14" fill="#c8562b"/>
    <rect x="308" y="84" width="14" height="14" fill="#c8562b"/>
    <rect x="322" y="84" width="14" height="14" fill="#201208"/>
    <rect x="336" y="84" width="14" height="14" fill="#c8562b"/>
    <rect x="350" y="84" width="14" height="14" fill="#c8562b"/>
    <rect x="364" y="84" width="14" height="14" fill="#c8562b"/>
    <rect x="378" y="84" width="14" height="14" fill="#c8562b"/>
    <rect x="0" y="98" width="14" height="14" fill="#e8c69c"/>
    <rect x="14" y="98" width="14" height="14" fill="#e8c69c"/>
    <rect x="28" y="98" width="14" height="14" fill="#140c06"/>
    <rect x="42" y="98" width="14" height="14" fill="#140c06"/>
    <rect x="56" y="98" width="14" height="14" fill="#e8c69c"/>
    <rect x="70" y="98" width="14" height="14" fill="#e8c69c"/>
    <rect x="84" y="98" width="14" height="14" fill="#c8562b"/>
    <rect x="98" y="98" width="14" height="14" fill="#c8562b"/>
    <rect x="112" y="98" width="14" height="14" fill="#c8562b"/>
    <rect x="126" y="98" width="14" height="14" fill="#fdf1e0"/>
    <rect x="140" y="98" width="14" height="14" fill="#fdf1e0"/>
    <rect x="154" y="98" width="14" height="14" fill="#c8562b"/>
    <rect x="168" y="98" width="14" height="14" fill="#c8562b"/>
    <rect x="182" y="98" width="14" height="14" fill="#fdf1e0"/>
    <rect x="196" y="98" width="14" height="14" fill="#fdf1e0"/>
    <rect x="210" y="98" width="14" height="14" fill="#c8562b"/>
    <rect x="224" y="98" width="14" height="14" fill="#c8562b"/>
    <rect x="238" y="98" width="14" height="14" fill="#fdf1e0"/>
    <rect x="252" y="98" width="14" height="14" fill="#fdf1e0"/>
    <rect x="266" y="98" width="14" height="14" fill="#c8562b"/>
    <rect x="280" y="98" width="14" height="14" fill="#c8562b"/>
    <rect x="294" y="98" width="14" height="14" fill="#c8562b"/>
    <rect x="308" y="98" width="14" height="14" fill="#c8562b"/>
    <rect x="322" y="98" width="14" height="14" fill="#c8562b"/>
    <rect x="336" y="98" width="14" height="14" fill="#c8562b"/>
    <rect x="0" y="112" width="14" height="14" fill="#e8c69c"/>
    <rect x="14" y="112" width="14" height="14" fill="#e8c69c"/>
    <rect x="28" y="112" width="14" height="14" fill="#e8c69c"/>
    <rect x="42" y="112" width="14" height="14" fill="#e8c69c"/>
    <rect x="56" y="112" width="14" height="14" fill="#e8c69c"/>
    <rect x="70" y="112" width="14" height="14" fill="#e8c69c"/>
    <rect x="84" y="112" width="14" height="14" fill="#c8562b"/>
    <rect x="98" y="112" width="14" height="14" fill="#c8562b"/>
    <rect x="112" y="112" width="14" height="14" fill="#c8562b"/>
    <rect x="126" y="112" width="14" height="14" fill="#c8562b"/>
    <rect x="140" y="112" width="14" height="14" fill="#c8562b"/>
    <rect x="154" y="112" width="14" height="14" fill="#c8562b"/>
    <rect x="168" y="112" width="14" height="14" fill="#c8562b"/>
    <rect x="182" y="112" width="14" height="14" fill="#c8562b"/>
    <rect x="196" y="112" width="14" height="14" fill="#c8562b"/>
    <rect x="210" y="112" width="14" height="14" fill="#c8562b"/>
    <rect x="224" y="112" width="14" height="14" fill="#c8562b"/>
    <rect x="238" y="112" width="14" height="14" fill="#c8562b"/>
    <rect x="252" y="112" width="14" height="14" fill="#c8562b"/>
    <rect x="266" y="112" width="14" height="14" fill="#c8562b"/>
    <rect x="280" y="112" width="14" height="14" fill="#c8562b"/>
    <rect x="294" y="112" width="14" height="14" fill="#c8562b"/>
    <rect x="0" y="126" width="14" height="14" fill="#140c06"/>
    <rect x="14" y="126" width="14" height="14" fill="#140c06"/>
    <rect x="28" y="126" width="14" height="14" fill="#140c06"/>
    <rect x="42" y="126" width="14" height="14" fill="#e8c69c"/>
    <rect x="56" y="126" width="14" height="14" fill="#e8c69c"/>
    <rect x="70" y="126" width="14" height="14" fill="#e8c69c"/>
    <rect x="84" y="126" width="14" height="14" fill="#e8c69c"/>
    <rect x="98" y="126" width="14" height="14" fill="#e8c69c"/>
    <rect x="112" y="126" width="14" height="14" fill="#e8c69c"/>
    <rect x="126" y="126" width="14" height="14" fill="#e8c69c"/>
    <rect x="140" y="126" width="14" height="14" fill="#e8c69c"/>
    <rect x="154" y="126" width="14" height="14" fill="#e8c69c"/>
    <rect x="168" y="126" width="14" height="14" fill="#e8c69c"/>
    <rect x="182" y="126" width="14" height="14" fill="#e8c69c"/>
    <rect x="196" y="126" width="14" height="14" fill="#e8c69c"/>
    <rect x="210" y="126" width="14" height="14" fill="#e8c69c"/>
    <rect x="224" y="126" width="14" height="14" fill="#e8c69c"/>
    <rect x="238" y="126" width="14" height="14" fill="#e8c69c"/>
    <rect x="252" y="126" width="14" height="14" fill="#e8c69c"/>
    <rect x="266" y="126" width="14" height="14" fill="#e8c69c"/>
    <rect x="280" y="126" width="14" height="14" fill="#e8c69c"/>
    <rect x="294" y="126" width="14" height="14" fill="#c8562b"/>
    <rect x="28" y="140" width="14" height="14" fill="#e8c69c"/>
    <rect x="42" y="140" width="14" height="14" fill="#e8c69c"/>
    <rect x="56" y="140" width="14" height="14" fill="#e8c69c"/>
    <rect x="70" y="140" width="14" height="14" fill="#e8c69c"/>
    <rect x="84" y="140" width="14" height="14" fill="#e8c69c"/>
    <rect x="98" y="140" width="14" height="14" fill="#e8c69c"/>
    <rect x="112" y="140" width="14" height="14" fill="#e8c69c"/>
    <rect x="126" y="140" width="14" height="14" fill="#e8c69c"/>
    <rect x="140" y="140" width="14" height="14" fill="#e8c69c"/>
    <rect x="154" y="140" width="14" height="14" fill="#e8c69c"/>
    <rect x="168" y="140" width="14" height="14" fill="#e8c69c"/>
    <rect x="182" y="140" width="14" height="14" fill="#e8c69c"/>
    <rect x="196" y="140" width="14" height="14" fill="#e8c69c"/>
    <rect x="210" y="140" width="14" height="14" fill="#e8c69c"/>
    <rect x="224" y="140" width="14" height="14" fill="#e8c69c"/>
    <rect x="238" y="140" width="14" height="14" fill="#e8c69c"/>
    <rect x="252" y="140" width="14" height="14" fill="#e8c69c"/>
    <rect x="266" y="140" width="14" height="14" fill="#e8c69c"/>
    <rect x="280" y="140" width="14" height="14" fill="#e8c69c"/>
    <rect x="294" y="140" width="14" height="14" fill="#c8562b"/>
    <rect x="84" y="154" width="14" height="14" fill="#c8562b"/>
    <rect x="98" y="154" width="14" height="14" fill="#c8562b"/>
    <rect x="252" y="154" width="14" height="14" fill="#c8562b"/>
    <rect x="266" y="154" width="14" height="14" fill="#c8562b"/>
    <rect x="70" y="168" width="14" height="14" fill="#a04a22"/>
    <rect x="84" y="168" width="14" height="14" fill="#a04a22"/>
    <rect x="98" y="168" width="14" height="14" fill="#a04a22"/>
    <rect x="238" y="168" width="14" height="14" fill="#a04a22"/>
    <rect x="252" y="168" width="14" height="14" fill="#a04a22"/>
    <rect x="266" y="168" width="14" height="14" fill="#a04a22"/>
  </g>
  <g transform="translate(540 76)" shape-rendering="crispEdges">
    <rect x="0" y="0" width="11" height="11" fill="#d2622e"/>
    <rect x="11" y="0" width="11" height="11" fill="#d2622e"/>
    <rect x="22" y="0" width="11" height="11" fill="#d2622e"/>
    <rect x="33" y="0" width="11" height="11" fill="#d2622e"/>
    <rect x="44" y="0" width="11" height="11" fill="#d2622e"/>
    <rect x="0" y="11" width="11" height="11" fill="#d2622e"/>
    <rect x="0" y="22" width="11" height="11" fill="#d2622e"/>
    <rect x="0" y="33" width="11" height="11" fill="#d2622e"/>
    <rect x="11" y="33" width="11" height="11" fill="#d2622e"/>
    <rect x="22" y="33" width="11" height="11" fill="#d2622e"/>
    <rect x="33" y="33" width="11" height="11" fill="#d2622e"/>
    <rect x="0" y="44" width="11" height="11" fill="#d2622e"/>
    <rect x="0" y="55" width="11" height="11" fill="#d2622e"/>
    <rect x="0" y="66" width="11" height="11" fill="#d2622e"/>
    <rect x="11" y="66" width="11" height="11" fill="#d2622e"/>
    <rect x="22" y="66" width="11" height="11" fill="#d2622e"/>
    <rect x="33" y="66" width="11" height="11" fill="#d2622e"/>
    <rect x="44" y="66" width="11" height="11" fill="#d2622e"/>
    <rect x="77" y="0" width="11" height="11" fill="#d2622e"/>
    <rect x="88" y="0" width="11" height="11" fill="#d2622e"/>
    <rect x="99" y="0" width="11" height="11" fill="#d2622e"/>
    <rect x="66" y="11" width="11" height="11" fill="#d2622e"/>
    <rect x="110" y="11" width="11" height="11" fill="#d2622e"/>
    <rect x="66" y="22" width="11" height="11" fill="#d2622e"/>
    <rect x="66" y="33" width="11" height="11" fill="#d2622e"/>
    <rect x="88" y="33" width="11" height="11" fill="#d2622e"/>
    <rect x="99" y="33" width="11" height="11" fill="#d2622e"/>
    <rect x="110" y="33" width="11" height="11" fill="#d2622e"/>
    <rect x="66" y="44" width="11" height="11" fill="#d2622e"/>
    <rect x="110" y="44" width="11" height="11" fill="#d2622e"/>
    <rect x="66" y="55" width="11" height="11" fill="#d2622e"/>
    <rect x="110" y="55" width="11" height="11" fill="#d2622e"/>
    <rect x="77" y="66" width="11" height="11" fill="#d2622e"/>
    <rect x="88" y="66" width="11" height="11" fill="#d2622e"/>
    <rect x="99" y="66" width="11" height="11" fill="#d2622e"/>
    <rect x="132" y="0" width="11" height="11" fill="#d2622e"/>
    <rect x="143" y="0" width="11" height="11" fill="#d2622e"/>
    <rect x="154" y="0" width="11" height="11" fill="#d2622e"/>
    <rect x="165" y="0" width="11" height="11" fill="#d2622e"/>
    <rect x="176" y="0" width="11" height="11" fill="#d2622e"/>
    <rect x="132" y="11" width="11" height="11" fill="#d2622e"/>
    <rect x="132" y="22" width="11" height="11" fill="#d2622e"/>
    <rect x="132" y="33" width="11" height="11" fill="#d2622e"/>
    <rect x="143" y="33" width="11" height="11" fill="#d2622e"/>
    <rect x="154" y="33" width="11" height="11" fill="#d2622e"/>
    <rect x="165" y="33" width="11" height="11" fill="#d2622e"/>
    <rect x="132" y="44" width="11" height="11" fill="#d2622e"/>
    <rect x="132" y="55" width="11" height="11" fill="#d2622e"/>
    <rect x="132" y="66" width="11" height="11" fill="#d2622e"/>
    <rect x="143" y="66" width="11" height="11" fill="#d2622e"/>
    <rect x="154" y="66" width="11" height="11" fill="#d2622e"/>
    <rect x="165" y="66" width="11" height="11" fill="#d2622e"/>
    <rect x="176" y="66" width="11" height="11" fill="#d2622e"/>
    <rect x="198" y="0" width="11" height="11" fill="#d2622e"/>
    <rect x="209" y="0" width="11" height="11" fill="#d2622e"/>
    <rect x="220" y="0" width="11" height="11" fill="#d2622e"/>
    <rect x="231" y="0" width="11" height="11" fill="#d2622e"/>
    <rect x="198" y="11" width="11" height="11" fill="#d2622e"/>
    <rect x="242" y="11" width="11" height="11" fill="#d2622e"/>
    <rect x="198" y="22" width="11" height="11" fill="#d2622e"/>
    <rect x="242" y="22" width="11" height="11" fill="#d2622e"/>
    <rect x="198" y="33" width="11" height="11" fill="#d2622e"/>
    <rect x="209" y="33" width="11" height="11" fill="#d2622e"/>
    <rect x="220" y="33" width="11" height="11" fill="#d2622e"/>
    <rect x="231" y="33" width="11" height="11" fill="#d2622e"/>
    <rect x="198" y="44" width="11" height="11" fill="#d2622e"/>
    <rect x="220" y="44" width="11" height="11" fill="#d2622e"/>
    <rect x="198" y="55" width="11" height="11" fill="#d2622e"/>
    <rect x="231" y="55" width="11" height="11" fill="#d2622e"/>
    <rect x="198" y="66" width="11" height="11" fill="#d2622e"/>
    <rect x="242" y="66" width="11" height="11" fill="#d2622e"/>
    <rect x="264" y="0" width="11" height="11" fill="#d2622e"/>
    <rect x="308" y="0" width="11" height="11" fill="#d2622e"/>
    <rect x="264" y="11" width="11" height="11" fill="#d2622e"/>
    <rect x="275" y="11" width="11" height="11" fill="#d2622e"/>
    <rect x="308" y="11" width="11" height="11" fill="#d2622e"/>
    <rect x="264" y="22" width="11" height="11" fill="#d2622e"/>
    <rect x="275" y="22" width="11" height="11" fill="#d2622e"/>
    <rect x="308" y="22" width="11" height="11" fill="#d2622e"/>
    <rect x="264" y="33" width="11" height="11" fill="#d2622e"/>
    <rect x="286" y="33" width="11" height="11" fill="#d2622e"/>
    <rect x="308" y="33" width="11" height="11" fill="#d2622e"/>
    <rect x="264" y="44" width="11" height="11" fill="#d2622e"/>
    <rect x="297" y="44" width="11" height="11" fill="#d2622e"/>
    <rect x="308" y="44" width="11" height="11" fill="#d2622e"/>
    <rect x="264" y="55" width="11" height="11" fill="#d2622e"/>
    <rect x="297" y="55" width="11" height="11" fill="#d2622e"/>
    <rect x="308" y="55" width="11" height="11" fill="#d2622e"/>
    <rect x="264" y="66" width="11" height="11" fill="#d2622e"/>
    <rect x="308" y="66" width="11" height="11" fill="#d2622e"/>
    <rect x="330" y="0" width="11" height="11" fill="#d2622e"/>
    <rect x="341" y="0" width="11" height="11" fill="#d2622e"/>
    <rect x="352" y="0" width="11" height="11" fill="#d2622e"/>
    <rect x="363" y="0" width="11" height="11" fill="#d2622e"/>
    <rect x="374" y="0" width="11" height="11" fill="#d2622e"/>
    <rect x="352" y="11" width="11" height="11" fill="#d2622e"/>
    <rect x="352" y="22" width="11" height="11" fill="#d2622e"/>
    <rect x="352" y="33" width="11" height="11" fill="#d2622e"/>
    <rect x="352" y="44" width="11" height="11" fill="#d2622e"/>
    <rect x="352" y="55" width="11" height="11" fill="#d2622e"/>
    <rect x="330" y="66" width="11" height="11" fill="#d2622e"/>
    <rect x="341" y="66" width="11" height="11" fill="#d2622e"/>
    <rect x="352" y="66" width="11" height="11" fill="#d2622e"/>
    <rect x="363" y="66" width="11" height="11" fill="#d2622e"/>
    <rect x="374" y="66" width="11" height="11" fill="#d2622e"/>
    <rect x="407" y="0" width="11" height="11" fill="#d2622e"/>
    <rect x="418" y="0" width="11" height="11" fill="#d2622e"/>
    <rect x="429" y="0" width="11" height="11" fill="#d2622e"/>
    <rect x="396" y="11" width="11" height="11" fill="#d2622e"/>
    <rect x="440" y="11" width="11" height="11" fill="#d2622e"/>
    <rect x="396" y="22" width="11" height="11" fill="#d2622e"/>
    <rect x="440" y="22" width="11" height="11" fill="#d2622e"/>
    <rect x="396" y="33" width="11" height="11" fill="#d2622e"/>
    <rect x="407" y="33" width="11" height="11" fill="#d2622e"/>
    <rect x="418" y="33" width="11" height="11" fill="#d2622e"/>
    <rect x="429" y="33" width="11" height="11" fill="#d2622e"/>
    <rect x="440" y="33" width="11" height="11" fill="#d2622e"/>
    <rect x="396" y="44" width="11" height="11" fill="#d2622e"/>
    <rect x="440" y="44" width="11" height="11" fill="#d2622e"/>
    <rect x="396" y="55" width="11" height="11" fill="#d2622e"/>
    <rect x="440" y="55" width="11" height="11" fill="#d2622e"/>
    <rect x="396" y="66" width="11" height="11" fill="#d2622e"/>
    <rect x="440" y="66" width="11" height="11" fill="#d2622e"/>
  </g>
  <text x="542" y="196"
        font-family="ui-monospace, SFMono-Regular, Menlo, Consolas, monospace"
        font-size="24" fill="#808080" font-style="italic">spiny tail, wide sky</text>
</svg>
